<?xml version="1.0" encoding="UTF-8" standalone="no"?>
<!-- Created with Inkscape (http://www.inkscape.org/) -->

<svg
   version="1.1"
   id="svg2"
   width="395"
   height="177.81332"
   viewBox="0 0 395 177.81332"
   sodipodi:docname="cincinnati-museum-center-seeklogo.eps"
   xmlns:inkscape="http://www.inkscape.org/namespaces/inkscape"
   xmlns:sodipodi="http://sodipodi.sourceforge.net/DTD/sodipodi-0.dtd"
   xmlns="http://www.w3.org/2000/svg"
   xmlns:svg="http://www.w3.org/2000/svg">
  <defs
     id="defs6" />
  <sodipodi:namedview
     id="namedview4"
     pagecolor="#ffffff"
     bordercolor="#ffffff"
     borderopacity="0.25"
     inkscape:showpageshadow="2"
     inkscape:pageopacity="0.0"
     inkscape:pagecheckerboard="0"
     inkscape:deskcolor="#d1d1d1" />
  <g
     id="g8"
     inkscape:groupmode="layer"
     inkscape:label="ink_ext_XXXXXX"
     transform="matrix(1.3333333,0,0,-1.3333333,0,177.81333)">
    <g
       id="g10"
       transform="scale(0.1)">
      <path
         d="m 2168.13,620.652 c 32.77,-46.781 69.41,-139.961 69.41,-139.961 l -69.09,0.399 z m 68.99,-320.004 H 1523.46 V 226.602 H 725.113 V 375.906 H 2237.12 Z M 746.898,480.035 c 24.149,76.906 127.59,249.688 175.325,302.012 l 0.328,-302.012 z m 219.45,346.305 c 29.757,27.133 69.522,57.219 104.232,79.199 V 480.035 L 966.348,479.254 Z M 1117.2,934.996 c 32.61,16.602 66.79,30.973 102.39,42.981 V 481.16 H 1117.2 Z m 153.54,55.813 c 33,9.117 67.12,16.271 102.19,21.091 V 481.16 h -102.19 z m 154.59,-153.184 h 99.6 V 481.16 h -99.6 z m 0,179.985 c 18.73,1.25 37.69,2.1 56.79,2.1 14.5,0 28.54,-0.52 42.81,-1.18 v -87.796 h -99.6 z m 143.69,-469.333 h 55.12 v 459.233 c 34.09,-7.03 47.28,-10.764 56.63,-13.717 V 481.16 h -111.75 z m 157.51,0.461 h 38.19 v 418.477 c 30.12,-13.516 48.69,-20.469 61.22,-26.574 V 481.16 h -99.41 z m 143.7,0 h 55.38 v 333.836 c 21.32,-14.961 46.65,-33.562 59.61,-45.929 V 481.16 h -114.99 z m 160.43,-0.461 36.39,0.196 v 209.562 c 23.95,-27.031 45.17,-51.867 55.96,-69.058 V 481.16 h -92.35 z M 2750.07,349.07 v 265.477 h -181.82 v 236.598 l -210.56,0.98 0.13,1.836 C 2176.85,1138.41 1851.27,1318.39 1479.2,1320.95 h -0.72 C 1106.37,1318.39 780.723,1138.41 599.789,853.961 l 0.066,-1.836 -210.558,-0.98 V 614.547 H 207.41 V 349.07 H 0 V 8.48828 H 2957.48 V 349.07 h -207.41"
         style="fill:#ffffff;fill-opacity:1;fill-rule:nonzero;stroke:none"
         id="path12" />
      <!-- <path
         d="m 3602.18,1069.69 c -4.52,-11.51 -13.03,-32.05 -30.58,-53.1 -25,-29.047 -64.57,-54.57 -122.18,-54.57 -93.66,0 -165.25,68.6 -165.25,186.8 0,120.19 77.63,184.81 167.75,184.81 110.2,0 136.25,-84.64 144.25,-109.18 l -66.1,-17.54 c -1.02,6.51 -4.01,21.54 -13.03,35.07 -7.55,11 -27.03,31.06 -63.61,31.06 -57.58,0 -97.67,-47.59 -97.67,-123.22 0,-80.65 42.58,-125.2 98.17,-125.2 33.06,0 53.1,16.02 67.6,34.54 11.53,15.54 16.02,28.56 18.55,36.57 l 62.1,-26.04"
         style="fill:#ffffff;fill-opacity:1;fill-rule:nonzero;stroke:none"
         id="path14" />
      <path
         d="M 3703.72,1221.44 V 971.004 h -59.58 v 250.436 z m 0,99.67 v -60.61 h -59.58 v 60.61 h 59.58"
         style="fill:#ffffff;fill-opacity:1;fill-rule:nonzero;stroke:none"
         id="path16" />
      <path
         d="m 3765.43,1221.44 h 60.6 v -29.56 c 3.01,4.51 9.02,12.54 19.52,19.54 15.06,11.02 38.08,17.54 57.6,17.54 28.55,0 53.12,-13.03 65.66,-30.06 15.48,-21.04 15.48,-48.07 15.48,-80.62 V 971.004 h -59.58 v 127.726 c 0,18.51 0,31.05 -2,38.07 -5.51,22.03 -21.56,33.54 -41.11,33.54 -19.49,0 -37.53,-11.51 -46.06,-28.03 -9.51,-18.53 -9.51,-44.06 -9.51,-62.61 V 971.004 h -60.6 v 250.436"
         style="fill:#ffffff;fill-opacity:1;fill-rule:nonzero;stroke:none"
         id="path18" />
      <path
         d="m 4209.58,1132.8 c -4.53,16.51 -22.05,42.56 -56.59,42.56 -34.58,0 -62.11,-27.54 -62.11,-77.63 0,-45.07 23.52,-78.14 63.08,-78.14 38.07,0 52.6,29.05 60.11,49.1 l 51.61,-27.05 c -19.56,-54.097 -69.16,-78.132 -112.69,-78.132 -69.62,0 -124.21,53.572 -124.21,132.742 0,76.61 55.08,132.71 126.21,132.71 63.09,0 95.14,-42.08 108.16,-71.13 l -53.57,-25.03"
         style="fill:#ffffff;fill-opacity:1;fill-rule:nonzero;stroke:none"
         id="path20" />
      <path
         d="M 4362.17,1221.44 V 971.004 h -59.58 v 250.436 z m 0,99.67 v -60.61 h -59.58 v 60.61 h 59.58"
         style="fill:#ffffff;fill-opacity:1;fill-rule:nonzero;stroke:none"
         id="path22" />
      <path
         d="m 4423.88,1221.44 h 60.63 v -29.56 c 2.98,4.51 8.99,12.54 19.48,19.54 15.06,11.02 38.09,17.54 57.65,17.54 28.51,0 53.08,-13.03 65.62,-30.06 15.51,-21.04 15.51,-48.07 15.51,-80.62 V 971.004 h -59.61 v 127.726 c 0,18.51 0,31.05 -2,38.07 -5.52,22.03 -21.56,33.54 -41.08,33.54 -19.51,0 -37.56,-11.51 -46.1,-28.03 -9.47,-18.53 -9.47,-44.06 -9.47,-62.61 V 971.004 h -60.63 v 250.436"
         style="fill:#ffffff;fill-opacity:1;fill-rule:nonzero;stroke:none"
         id="path24" />
      <path
         d="m 4703.96,1221.44 h 60.63 v -29.56 c 2.95,4.51 8.95,12.54 19.48,19.54 15.03,11.02 38.1,17.54 57.61,17.54 28.54,0 53.11,-13.03 65.61,-30.06 15.56,-21.04 15.56,-48.07 15.56,-80.62 V 971.004 h -59.65 v 127.726 c 0,18.51 0,31.05 -2,38.07 -5.51,22.03 -21.55,33.54 -41.04,33.54 -19.52,0 -37.56,-11.51 -46.1,-28.03 -9.47,-18.53 -9.47,-44.06 -9.47,-62.61 V 971.004 h -60.63 v 250.436"
         style="fill:#ffffff;fill-opacity:1;fill-rule:nonzero;stroke:none"
         id="path26" />
      <path
         d="m 5134.06,1095.73 c -12.04,-6.01 -25.55,-10.54 -52.59,-15.03 -21.55,-3 -50.06,-8.01 -50.06,-34.53 0,-19.56 16.5,-29.58 40.55,-29.58 30.54,0 52.1,14.03 58.56,29.05 3.54,7.5 3.54,15.03 3.54,22.56 z m -154.74,52.09 c 0.97,12.52 1.99,23.03 10.04,37.55 24.01,43.59 83.59,43.59 99.62,43.59 24.06,0 53.09,-3.01 75.14,-16.03 29.55,-18.03 30.05,-41.57 30.05,-68.62 v -132.72 c 0,-19.027 0,-25.527 11.03,-40.586 h -71.14 c -0.49,6.004 -1.5,16.027 -1.5,19.555 -13,-11.02 -39.57,-25.555 -74.15,-25.555 -56.55,0 -90.62,35.086 -90.62,78.116 0,12.55 2.99,24.04 8.01,34.06 18.01,36.07 56.56,44.09 80.61,48.6 51.61,10.51 55.61,11.51 77.65,18.53 0,12.52 -1.01,38.06 -42.55,38.06 -25.09,0 -38.58,-8.01 -44.59,-16.03 -6.52,-8 -6.03,-15.02 -6.03,-22.03 l -61.57,3.51"
         style="fill:#ffffff;fill-opacity:1;fill-rule:nonzero;stroke:none"
         id="path28" />
      <path
         d="m 5323.96,1178.37 v -113.21 c 0,-31.02 0,-44.55 28.57,-44.55 8.95,0 16.5,0.48 25,3 v -50.606 c -18.05,-2.969 -30.05,-3.996 -43.57,-3.996 -12.53,0 -54.58,0 -66.11,30.558 -4,10.024 -4,26.044 -4,51.094 v 127.71 h -36.57 v 43.07 h 36.57 v 88.65 h 60.11 v -88.65 h 53.57 v -43.07 h -53.57"
         style="fill:#ffffff;fill-opacity:1;fill-rule:nonzero;stroke:none"
         id="path30" /> 
      <path
         d="M 5478.09,1221.44 V 971.004 h -59.58 v 250.436 z m 0,99.67 v -60.61 h -59.58 v 60.61 h 59.58"
         style="fill:#ffffff;fill-opacity:1;fill-rule:nonzero;stroke:none"
         id="path32" /> 
      <path
         d="M 3613.23,859.391 V 505.809 h -64.63 l 6.01,290.476 -76.11,-290.476 h -59.58 l -76.64,290.476 6.53,-290.476 h -64.64 v 353.582 h 96.16 l 69.13,-262.426 67.61,262.426 h 96.16"
         style="fill:#ffffff;fill-opacity:1;fill-rule:nonzero;stroke:none"
         id="path34" />
      <path
         d="M 3912.57,756.227 V 505.809 h -60.1 v 25.527 c -10.5,-10.023 -35.04,-31.527 -81.1,-31.527 -41.11,0 -60.63,17.504 -69.62,29.031 -17.02,21.558 -17.02,45.078 -17.02,82.629 v 144.758 h 60.59 V 612.504 c 0,-10.012 0,-18.543 2,-25.07 6.5,-22.047 24.54,-31.543 46.56,-31.543 25.06,0 40.57,13.515 48.58,26.558 9.05,16.52 9.51,32.543 10.01,67.598 v 106.18 h 60.1"
         style="fill:#ffffff;fill-opacity:1;fill-rule:nonzero;stroke:none"
         id="path36" />
      <path
         d="m 3998.26,579.938 c 15.06,-18.555 37.57,-32.051 72.11,-32.051 34.58,0 49.61,17.027 49.61,29.527 0,16.027 -18.05,20.024 -26.04,21.555 -8.51,2 -49.61,9.531 -58.57,12.023 -59.65,14.024 -70.63,48.555 -70.63,71.11 0,42.582 38.58,81.656 107.14,81.656 38.09,0 65.65,-12.024 82.65,-24.043 12.53,-8.008 20.54,-16.539 25.56,-22.559 l -42.56,-39.582 c -7.05,13.551 -24.04,38.074 -68.11,38.074 -28.57,0 -41.6,-12.515 -41.6,-25.523 0,-18.027 18.51,-23.047 50.56,-28.574 52.1,-9.504 66.63,-12.012 82.67,-24.528 15.52,-12.007 25.53,-32.05 25.53,-53.082 0,-39.07 -35.04,-85.628 -112.66,-85.628 -44.58,0 -88.65,14.027 -120.21,44.554 l 44.55,37.071"
         style="fill:#ffffff;fill-opacity:1;fill-rule:nonzero;stroke:none"
         id="path38" />
      <path
         d="m 4401.84,663.074 c -5.52,39.059 -29.56,52.574 -56.11,52.574 -32.05,0 -54.07,-18.523 -61.12,-52.574 z m 68.1,-101.183 c -31.07,-41.547 -71.13,-63.578 -122.21,-63.578 -65.61,0 -128.71,41.55 -128.71,133.707 0,84.132 54.08,131.738 124.71,131.738 66.1,0 93.66,-39.582 98.65,-47.074 20.54,-29.09 25.06,-72.637 25.56,-97.688 h -185.33 c 7.05,-39.586 31.56,-62.105 71.16,-62.105 41.01,0 57.58,24.05 65.06,34.547 l 51.11,-29.547"
         style="fill:#ffffff;fill-opacity:1;fill-rule:nonzero;stroke:none"
         id="path40" />
      <path
         d="M 4742.15,756.227 V 505.809 h -60.11 v 25.527 c -10.53,-10.023 -35.07,-31.527 -81.16,-31.527 -41.05,0 -60.6,17.504 -69.59,29.031 -17.03,21.558 -17.03,45.078 -17.03,82.629 v 144.758 h 60.56 V 612.504 c 0,-10.012 0,-18.543 2.01,-25.07 6.53,-22.047 24.57,-31.543 46.62,-31.543 25.03,0 40.58,13.515 48.58,26.558 9,16.52 9.48,32.543 10.01,67.598 v 106.18 h 60.11"
         style="fill:#ffffff;fill-opacity:1;fill-rule:nonzero;stroke:none"
         id="path42" />
      <path
         d="m 4804.84,756.227 h 59.57 V 728.18 c 20.05,25.05 55.59,35.578 79.14,35.578 23.56,0 53.08,-9.055 69.61,-38.578 10.04,14.027 36.07,38.578 80.16,38.578 25,0 49.04,-7.051 66.1,-25.559 20.05,-22.047 19.53,-48.601 19.53,-74.648 V 505.809 h -59.58 v 138.238 c 0,23.519 3.47,63.105 -42.09,63.105 -19.07,0 -34.56,-10.515 -42.59,-23.554 -11.49,-18.524 -13.02,-38.551 -13.02,-60.106 V 505.809 h -59.62 V 645.52 c 0,18.031 0,24.554 -1.99,32.054 -4.5,16.555 -17.52,29.578 -38.56,29.578 -18,0 -35.56,-10.515 -46.06,-29.054 -10.5,-19.516 -11.03,-43.075 -11.03,-67.598 V 505.809 h -59.57 v 250.418"
         style="fill:#ffffff;fill-opacity:1;fill-rule:nonzero;stroke:none"
         id="path44" />
      <path
         d="M 3601.82,107.691 C 3597.29,96.1602 3588.79,75.6289 3571.27,54.5898 3546.24,25.5508 3506.68,0 3449.06,0 c -93.63,0 -165.25,68.6016 -165.25,186.781 0,120.25 77.63,184.828 167.78,184.828 110.17,0 136.22,-84.609 144.22,-109.16 l -66.1,-17.519 c -1.02,6.492 -4.01,21.511 -13.03,35.019 -7.51,11.051 -27.03,31.082 -63.61,31.082 -57.58,0 -97.64,-47.59 -97.64,-123.211 0,-80.64 42.59,-125.2302 98.16,-125.2302 33.04,0 53.09,16.0118 67.58,34.5704 11.55,15.5118 16.02,28.5588 18.55,36.5778 l 62.1,-26.047"
         style="fill:#ffffff;fill-opacity:1;fill-rule:nonzero;stroke:none"
         id="path46" />
      <path
         d="m 3816.54,166.27 c -5.54,39.07 -29.56,52.57 -56.1,52.57 -32.05,0 -54.09,-18.5 -61.08,-52.57 z M 3884.65,65.1211 C 3853.61,23.5508 3813.53,1.51172 3762.44,1.51172 c -65.61,0 -128.7,41.55858 -128.7,133.71828 0,84.129 54.1,131.719 124.7,131.719 66.11,0 93.67,-39.578 98.65,-47.078 20.55,-29.062 25.07,-72.641 25.57,-97.672 h -185.31 c 6.99,-39.5779 31.54,-62.0974 71.1,-62.0974 41.07,0 57.6,24.0273 65.12,34.5468 l 51.08,-29.5273"
         style="fill:#ffffff;fill-opacity:1;fill-rule:nonzero;stroke:none"
         id="path48" />
      <path
         d="m 3930.13,259.422 h 60.59 v -29.524 c 2.98,4.493 8.99,12.5 19.51,19.524 15.03,11.008 38.1,17.527 57.58,17.527 28.59,0 53.16,-13.039 65.66,-30.051 15.51,-21.019 15.51,-48.109 15.51,-80.636 V 9.01953 h -59.6 V 136.711 c 0,18.551 0,31.078 -2.01,38.07 -5.51,22.028 -21.55,33.571 -41.07,33.571 -19.49,0 -37.54,-11.543 -46.07,-28.063 -9.51,-18.508 -9.51,-44.051 -9.51,-62.578 V 9.01953 h -60.59 V 259.422"
         style="fill:#ffffff;fill-opacity:1;fill-rule:nonzero;stroke:none"
         id="path50" />
      <path
         d="M 4277.59,216.359 V 103.18 c 0,-31.0316 0,-44.5902 28.54,-44.5902 9.03,0 16.51,0.5313 25.03,3.0196 V 11.0195 C 4313.15,8 4301.11,7.01953 4287.63,7.01953 c -12.53,0 -54.62,0 -66.11,30.55077 -4.04,10.0313 -4.04,26.0391 -4.04,51.0586 V 216.359 h -36.54 v 43.063 h 36.54 v 88.633 h 60.11 v -88.633 h 53.57 v -43.063 h -53.57"
         style="fill:#ffffff;fill-opacity:1;fill-rule:nonzero;stroke:none"
         id="path52" />
      <path
         d="m 4534.35,166.27 c -5.48,39.07 -29.54,52.57 -56.11,52.57 -32.05,0 -54.07,-18.5 -61.09,-52.57 z m 68.1,-101.1489 C 4571.42,23.5508 4531.36,1.51172 4480.27,1.51172 c -65.61,0 -128.74,41.55858 -128.74,133.71828 0,84.129 54.08,131.719 124.71,131.719 66.1,0 93.66,-39.578 98.68,-47.078 20.54,-29.062 25.04,-72.641 25.53,-97.672 h -185.29 c 7.01,-39.5779 31.55,-62.0974 71.12,-62.0974 41.07,0 57.58,24.0273 65.09,34.5468 l 51.08,-29.5273"
         style="fill:#ffffff;fill-opacity:1;fill-rule:nonzero;stroke:none"
         id="path54" />
      <path
         d="m 4706.22,259.422 v -35.531 c 7.51,13.007 24.05,42.55 80.12,41.058 V 203.34 c -13,-0.52 -35.57,-1 -54.07,-15.02 -25.56,-19.558 -26.05,-45.082 -26.05,-86.629 V 9.01953 h -58.1 V 259.422 h 58.1"
         style="fill:#ffffff;fill-opacity:1;fill-rule:nonzero;stroke:none"
         id="path56" /> -->
    </g>
  </g>
</svg>
